<svg width="588" height="464" viewBox="0 0 588 464" fill="none" xmlns="http://www.w3.org/2000/svg">
<path d="M129.389 332.503C56.5071 218.509 156.101 127.06 156.101 127.06C247.144 31.8533 316.209 29.978 324.488 30.1139C325.086 30.1139 325.683 30.1139 326.288 30.1139C337.229 29.9916 438.1 30.9361 477.628 105.236C477.628 105.236 485.499 124.104 477.628 163.085C477.628 163.085 465.62 208.888 496.645 227.437C496.645 227.437 585.134 265.61 574.641 312.133C574.641 312.133 558.341 406.83 361.238 432.045C361.238 432.045 223.651 453.271 143.788 351.283L129.389 332.503Z" fill="#E95659"/>
<path opacity="0.7" d="M574.675 312.146C574.675 312.146 569.323 343.205 527.73 374.48C523.257 377.86 518.346 381.216 512.999 384.55C510.812 385.909 508.548 387.268 506.207 388.627C474.524 406.837 428.374 423.47 361.279 432.058C361.279 432.058 223.699 453.285 143.828 351.304L129.396 332.503C56.5071 218.502 156.101 127.06 156.101 127.06C203.643 77.3911 245.134 53.1206 275.146 41.2911C280.172 39.3207 284.865 37.6899 289.219 36.3446C308.724 30.3245 321.248 30.0731 324.488 30.1207C325.092 30.1207 325.683 30.1207 326.281 30.1207C332.441 30.0527 367.099 30.3177 403.279 43.8323C406.94 45.1912 410.614 46.6861 414.275 48.344C415.205 48.7584 416.129 49.1865 417.059 49.6281C417.738 49.9543 418.418 50.3076 419.097 50.6134C420.652 51.3744 422.207 52.1625 423.749 52.9847C444.803 64.1211 464.547 80.6729 477.621 105.242C478.496 107.628 479.148 110.089 479.57 112.594C480.229 116.156 480.669 119.755 480.888 123.371C480.983 124.926 481.058 126.584 481.092 128.337C481.275 137.279 480.494 148.844 477.621 163.092C477.621 163.092 469.301 194.83 484.413 216.165C487.47 220.481 491.356 224.144 495.843 226.941C496.115 227.111 496.393 227.288 496.679 227.451C496.679 227.451 500.319 229.027 506.044 231.908L506.201 231.997C508.238 233.023 510.527 234.212 512.992 235.564C517.434 237.976 522.501 240.884 527.723 244.234C552.099 259.719 580.923 284.445 574.675 312.146Z" fill="white"/>
<path d="M495.843 226.941H289.219V216.172H484.426C487.48 220.484 491.361 224.145 495.843 226.941Z" fill="#E6E6E6"/>
<path d="M506.044 231.908H289.219V226.941H495.843C496.115 227.111 496.393 227.288 496.678 227.451C496.678 227.451 500.319 229.027 506.044 231.908Z" fill="white"/>
<path d="M480.895 123.377H289.219V112.601H479.577C480.235 116.163 480.675 119.762 480.895 123.377Z" fill="#E6E6E6"/>
<path d="M481.098 128.344H289.219V123.377H480.895C480.99 124.933 481.064 126.591 481.098 128.344Z" fill="white"/>
<path d="M289.219 36.3378V370.309H275.146V41.2843C280.172 39.3139 284.865 37.6831 289.219 36.3378Z" fill="white"/>
<path d="M16.7552 265.053C16.7552 265.053 83.0084 260.908 103.689 270.848C103.689 270.848 92.9787 244.288 72.2503 235.197C67.2747 233.077 61.8563 232.207 56.4676 232.663C51.0788 233.119 45.8834 234.887 41.3344 237.813C28.2128 246.102 2.2141 263.789 16.7552 265.053Z" fill="#E95659"/>
<path d="M40.7503 192.968C40.7503 192.968 22.1206 206.224 52.5679 225.283C52.5679 225.283 96.2591 250.967 106.223 253.454C106.223 253.454 96.3677 203.738 62.3752 192.982C62.348 192.968 50.707 187.172 40.7503 192.968Z" fill="#E95659"/>
<path d="M132.316 315.401C132.224 315.401 132.135 315.37 132.062 315.313C131.99 315.257 131.938 315.178 131.916 315.088C125.803 291.599 113.401 266.371 113.279 266.119C92.7613 225.698 68.9835 214.874 60.0388 210.797C58.1032 209.914 56.935 209.384 56.5071 208.868C56.4656 208.827 56.4331 208.778 56.4115 208.725C56.39 208.671 56.38 208.613 56.3821 208.555C56.3843 208.497 56.3985 208.441 56.424 208.388C56.4494 208.336 56.4855 208.29 56.5299 208.253C56.5743 208.216 56.626 208.188 56.6816 208.172C56.7373 208.156 56.7957 208.152 56.8531 208.16C56.9105 208.168 56.9655 208.188 57.0147 208.219C57.0639 208.249 57.1062 208.29 57.1388 208.338C57.4512 208.711 58.7416 209.296 60.3784 210.043C69.3978 214.12 93.3658 225.066 114.033 265.759C114.162 266.017 126.611 291.314 132.731 314.891C132.757 314.998 132.741 315.11 132.685 315.204C132.629 315.299 132.538 315.367 132.432 315.394L132.316 315.401Z" fill="#333333"/>
<path opacity="0.2" d="M16.7552 265.053C16.7552 265.053 83.0084 260.908 103.689 270.848C103.689 270.848 92.9787 244.288 72.2503 235.197C67.2747 233.077 61.8563 232.207 56.4676 232.663C51.0788 233.119 45.8834 234.887 41.3344 237.813C28.2128 246.102 2.2141 263.789 16.7552 265.053Z" fill="black"/>
<path d="M131.474 315.401C131.384 315.4 131.297 315.369 131.226 315.314C131.155 315.259 131.104 315.182 131.08 315.095C126.625 299.033 121.694 292.245 121.646 292.177C110.583 269.347 87.8916 260.84 70.7969 257.701C59.2802 255.647 47.5356 255.19 35.8942 256.342C35.7873 256.351 35.6808 256.319 35.5973 256.251C35.5137 256.184 35.4597 256.087 35.4464 255.98C35.4332 255.873 35.4619 255.766 35.5264 255.68C35.591 255.594 35.6863 255.537 35.7924 255.52C47.5103 254.354 59.333 254.811 70.9259 256.879C88.2176 260.045 111.174 268.661 122.346 291.742C122.516 291.953 127.372 298.632 131.854 314.844C131.884 314.949 131.87 315.062 131.817 315.157C131.763 315.253 131.674 315.323 131.569 315.353L131.474 315.401Z" fill="#333333"/>
<path d="M51.0873 255.751C50.9971 255.751 50.9091 255.722 50.836 255.669C39.0796 246.727 25.0954 249.221 24.9528 249.248C24.8459 249.266 24.7361 249.243 24.6463 249.182C24.5565 249.121 24.4935 249.028 24.4706 248.922C24.4524 248.813 24.4769 248.702 24.5389 248.611C24.6009 248.52 24.6956 248.456 24.8034 248.433C24.946 248.433 39.2833 245.837 51.3386 255.01C51.4245 255.077 51.4805 255.175 51.4944 255.284C51.5084 255.392 51.4793 255.501 51.4133 255.588C51.3754 255.638 51.3262 255.679 51.2696 255.708C51.213 255.736 51.1506 255.751 51.0873 255.751Z" fill="#333333"/>
<path d="M68.3179 257.273C68.2314 257.273 68.1469 257.247 68.0762 257.197C68.0056 257.147 67.9524 257.076 67.924 256.994C61.6824 238.533 42.2377 237.813 42.0407 237.813C41.9866 237.812 41.9332 237.8 41.8837 237.779C41.8341 237.757 41.7894 237.725 41.7521 237.686C41.7148 237.647 41.6857 237.601 41.6664 237.55C41.6472 237.5 41.6382 237.446 41.64 237.392C41.6496 237.284 41.6975 237.184 41.7748 237.109C41.8521 237.035 41.9537 236.99 42.0611 236.984C42.2649 236.984 62.2801 237.745 68.7118 256.763C68.7443 256.868 68.7348 256.981 68.6853 257.078C68.6359 257.176 68.5504 257.251 68.4469 257.286C68.4035 257.288 68.36 257.284 68.3179 257.273Z" fill="#333333"/>
<path d="M83.6604 260.915C83.5684 260.914 83.4791 260.884 83.4065 260.827C83.334 260.77 83.2823 260.691 83.2597 260.602C78.1659 241.326 63.0136 233.172 61.8046 233.057C61.7023 233.038 61.6107 232.981 61.5481 232.898C61.4855 232.815 61.4565 232.711 61.4667 232.608C61.477 232.504 61.5258 232.408 61.6035 232.339C61.6812 232.27 61.7821 232.233 61.8861 232.234C63.1087 232.35 78.7568 240.449 84.0339 260.419C84.0483 260.471 84.0522 260.526 84.0453 260.58C84.0384 260.635 84.0209 260.687 83.9937 260.734C83.9666 260.781 83.9304 260.823 83.8872 260.856C83.844 260.89 83.7946 260.914 83.7419 260.928L83.6604 260.915Z" fill="#333333"/>
<path d="M35.12 264.883C35.0425 264.882 34.9667 264.861 34.9007 264.82C34.8348 264.779 34.7815 264.721 34.7465 264.652C34.7219 264.603 34.7071 264.55 34.7031 264.496C34.699 264.441 34.7057 264.387 34.7227 264.335C34.7397 264.283 34.7668 264.235 34.8023 264.194C34.8379 264.153 34.8812 264.119 34.9298 264.095C35.0589 264.033 48.0514 257.477 58.0217 255.262C58.1279 255.239 58.2386 255.259 58.33 255.318C58.4215 255.376 58.4863 255.468 58.5107 255.574C58.5237 255.627 58.5259 255.682 58.5171 255.736C58.5083 255.79 58.4888 255.842 58.4596 255.888C58.4305 255.935 58.3923 255.975 58.3474 256.006C58.3025 256.037 58.2518 256.059 58.1983 256.07C48.3299 258.265 35.4324 264.767 35.317 264.835C35.2556 264.865 35.1884 264.882 35.12 264.883Z" fill="#333333"/>
<path d="M58.0896 264.883C58.0148 264.882 57.9416 264.861 57.8772 264.823C57.8129 264.785 57.7596 264.73 57.7228 264.665C57.6713 264.569 57.6595 264.456 57.69 264.35C57.7204 264.245 57.7907 264.156 57.8858 264.101C58.3409 263.85 69.1601 257.932 77.7652 258.38C77.8235 258.377 77.8818 258.386 77.9364 258.407C77.991 258.428 78.0405 258.46 78.0818 258.501C78.123 258.542 78.1551 258.592 78.1759 258.647C78.1966 258.701 78.2056 258.76 78.2023 258.818C78.1989 258.876 78.1832 258.933 78.1563 258.985C78.1294 259.037 78.0918 259.083 78.0461 259.119C78.0003 259.155 77.9474 259.181 77.8908 259.196C77.8342 259.21 77.7752 259.212 77.7177 259.202C69.3706 258.754 58.402 264.767 58.2865 264.828C58.2266 264.863 58.1588 264.882 58.0896 264.883Z" fill="#333333"/>
<path d="M71.6391 216.858C71.5344 216.86 71.4329 216.822 71.3558 216.751C71.2787 216.68 71.2317 216.582 71.2248 216.478C70.6339 208.698 61.6485 198.132 61.5602 198.037C61.4882 197.954 61.452 197.846 61.4597 197.736C61.4673 197.627 61.5181 197.525 61.6009 197.453C61.6424 197.417 61.6904 197.391 61.7422 197.374C61.794 197.357 61.8486 197.351 61.9028 197.355C61.957 197.36 62.0099 197.375 62.0583 197.4C62.1067 197.424 62.1498 197.459 62.185 197.5C62.5653 197.935 71.4421 208.372 72.0466 216.416C72.0512 216.471 72.045 216.525 72.0283 216.577C72.0116 216.628 71.9847 216.676 71.9493 216.717C71.9139 216.758 71.8706 216.792 71.822 216.816C71.7734 216.84 71.7204 216.855 71.6662 216.858H71.6391Z" fill="#333333"/>
<path d="M84.5094 226.642C84.4101 226.643 84.3139 226.608 84.2389 226.543C84.1638 226.478 84.1151 226.388 84.1019 226.289C82.9312 218.757 80.4802 211.482 76.8551 204.777C76.8076 204.734 76.7709 204.68 76.7478 204.62C76.7247 204.56 76.7158 204.495 76.722 204.431C76.7282 204.367 76.7491 204.306 76.7833 204.251C76.8174 204.197 76.8637 204.151 76.9186 204.117C76.9735 204.084 77.0355 204.063 77.0995 204.058C77.1636 204.053 77.2281 204.062 77.2878 204.086C77.3475 204.11 77.4009 204.147 77.4437 204.195C77.4865 204.243 77.5175 204.301 77.5343 204.363C81.219 211.157 83.7093 218.535 84.8965 226.174C84.9121 226.282 84.8845 226.391 84.8196 226.479C84.7548 226.567 84.6579 226.626 84.5501 226.642H84.5094Z" fill="#333333"/>
<path d="M82.0576 224.495C81.9889 224.497 81.9211 224.48 81.8606 224.448C73.7105 220.045 58.3069 222.307 58.1507 222.335C58.0966 222.343 58.0413 222.341 57.9882 222.328C57.935 222.314 57.8851 222.291 57.8413 222.258C57.7976 222.225 57.761 222.183 57.7336 222.136C57.7062 222.088 57.6887 222.036 57.6821 221.981C57.6724 221.928 57.6739 221.872 57.6863 221.819C57.6987 221.766 57.7218 221.716 57.7543 221.672C57.7867 221.628 57.8277 221.591 57.8749 221.564C57.922 221.537 57.9743 221.519 58.0285 221.512C58.6669 221.417 73.826 219.189 82.2545 223.714C82.3029 223.74 82.3457 223.775 82.3804 223.817C82.4152 223.859 82.4412 223.908 82.457 223.96C82.4728 224.013 82.478 224.068 82.4724 224.122C82.4668 224.177 82.4505 224.23 82.4243 224.278C82.3881 224.343 82.335 224.398 82.2705 224.436C82.206 224.475 82.1325 224.495 82.0576 224.495Z" fill="#333333"/>
<path d="M95.8991 238.683C95.7978 238.683 95.7003 238.644 95.6274 238.574C87.2125 231.052 71.8021 231.365 71.6459 231.371C71.536 231.371 71.4306 231.328 71.3529 231.25C71.2752 231.172 71.2316 231.067 71.2316 230.957C71.2316 230.847 71.2752 230.742 71.3529 230.664C71.4306 230.586 71.536 230.543 71.6459 230.543C72.325 230.543 87.5385 230.21 96.1979 237.962C96.2751 238.04 96.3184 238.145 96.3184 238.254C96.3184 238.364 96.2751 238.469 96.1979 238.547C96.1595 238.588 96.1133 238.621 96.0621 238.644C96.0108 238.668 95.9554 238.681 95.8991 238.683Z" fill="#333333"/>
<path d="M66.7558 213.787H66.7015C58.042 212.666 43.1003 213.787 42.9305 213.787C42.8216 213.794 42.7142 213.759 42.6316 213.687C42.5489 213.616 42.4977 213.515 42.489 213.406C42.4844 213.352 42.4906 213.298 42.5073 213.246C42.524 213.194 42.5509 213.147 42.5863 213.106C42.6217 213.064 42.665 213.031 42.7136 213.007C42.7622 212.982 42.8152 212.968 42.8693 212.965C43.0188 212.965 58.0556 211.837 66.7966 212.965C66.897 212.983 66.9873 213.037 67.0502 213.117C67.1131 213.198 67.1442 213.298 67.1375 213.4C67.1307 213.502 67.0867 213.598 67.0138 213.669C66.9408 213.741 66.8441 213.782 66.7422 213.787H66.7558Z" fill="#333333"/>
<path d="M172.449 212.856C172.449 212.856 160.156 239.491 137.077 240.864C135.944 240.922 134.821 240.627 133.863 240.018C132.905 239.409 132.161 238.517 131.732 237.466C130.094 233.536 128.905 229.433 128.187 225.236C125.824 211.855 128.294 198.07 135.155 186.343C135.155 186.343 143.611 171.348 156.074 163.099C161.378 159.593 167.402 157.31 173.814 157.915C174.435 157.976 175.03 158.196 175.542 158.553C176.055 158.91 176.467 159.392 176.741 159.953C179.376 165.232 185.299 182.416 172.449 212.856Z" fill="#E95659"/>
<path opacity="0.2" d="M156.101 163.072C156.101 163.072 154.315 192.968 128.187 225.256C125.819 211.869 128.289 198.076 135.155 186.343C135.155 186.343 143.638 171.348 156.101 163.072Z" fill="black"/>
<path d="M136.33 315.306C136.247 315.304 136.166 315.278 136.097 315.231C136.028 315.184 135.975 315.118 135.943 315.041C134.252 310.597 131.331 290.58 130.157 282.162C129.736 279.198 129.575 276.204 129.674 273.213C131.678 213.148 161.066 175.683 161.358 175.316C161.391 175.273 161.433 175.237 161.481 175.21C161.529 175.183 161.581 175.166 161.636 175.16C161.69 175.154 161.745 175.158 161.797 175.173C161.85 175.188 161.899 175.214 161.942 175.248C162.027 175.317 162.082 175.417 162.095 175.526C162.107 175.635 162.077 175.745 162.01 175.832C161.711 176.199 132.493 213.468 130.503 273.24C130.403 276.193 130.562 279.148 130.978 282.073C132.147 290.451 135.053 310.407 136.717 314.769C136.737 314.82 136.747 314.874 136.745 314.929C136.744 314.983 136.732 315.037 136.71 315.087C136.688 315.137 136.656 315.182 136.617 315.219C136.577 315.257 136.531 315.286 136.48 315.306C136.43 315.313 136.38 315.313 136.33 315.306Z" fill="#333333"/>
<path d="M146.396 202.63C146.294 202.631 146.197 202.592 146.124 202.521C146.083 202.486 146.049 202.442 146.025 202.393C146.001 202.344 145.986 202.291 145.983 202.236C145.98 202.182 145.988 202.127 146.006 202.076C146.025 202.024 146.053 201.977 146.09 201.937C146.212 201.801 158.315 188.416 171.62 188.416C171.674 188.416 171.728 188.426 171.779 188.447C171.829 188.468 171.874 188.499 171.913 188.537C171.951 188.576 171.982 188.621 172.003 188.672C172.024 188.722 172.034 188.776 172.034 188.83C172.034 188.885 172.024 188.939 172.003 188.989C171.982 189.039 171.951 189.085 171.913 189.123C171.874 189.162 171.829 189.192 171.779 189.213C171.728 189.234 171.674 189.245 171.62 189.245C158.716 189.245 146.823 202.358 146.708 202.494C146.668 202.537 146.62 202.571 146.566 202.595C146.512 202.618 146.454 202.63 146.396 202.63Z" fill="#333333"/>
<path d="M137.872 225.698C137.792 225.699 137.714 225.675 137.648 225.63C137.556 225.57 137.492 225.477 137.469 225.37C137.446 225.263 137.467 225.151 137.526 225.059C137.648 224.876 149.642 206.632 167.314 208.297C167.423 208.307 167.523 208.36 167.593 208.444C167.663 208.528 167.697 208.636 167.688 208.745C167.683 208.8 167.668 208.854 167.643 208.902C167.617 208.951 167.582 208.994 167.54 209.029C167.497 209.064 167.448 209.09 167.395 209.106C167.343 209.121 167.287 209.126 167.233 209.119C150.063 207.502 138.341 225.324 138.218 225.508C138.181 225.566 138.13 225.614 138.07 225.648C138.009 225.681 137.941 225.698 137.872 225.698Z" fill="#333333"/>
<path d="M148.182 249.792C148.182 249.792 158.369 224.393 176.198 219.454C176.198 219.454 189.618 216.614 199.256 220.534C199.256 220.534 209.042 224.611 207.31 231.569C207.31 231.569 207.236 249.309 179.077 247.651C179.077 247.651 158.695 246.129 148.182 249.792Z" fill="#E95659"/>
<path d="M193.564 241.033C193.564 240.986 191.323 236.135 186.603 235.897L186.643 235.068C191.88 235.333 194.23 240.503 194.325 240.701L193.564 241.033Z" fill="#333333"/>
<path d="M135.155 314.192C135.108 311.909 134.13 258.122 153.092 244.03C153.846 243.187 164.163 232.404 198.135 235.639L198.06 236.467C163.884 233.213 153.785 244.492 153.69 244.621L153.622 244.682C134.965 258.482 135.963 313.628 135.963 314.185L135.155 314.192Z" fill="#333333"/>
<path d="M167.633 238.411L166.852 238.125C169.956 229.483 182.548 225.073 183.084 224.889L183.349 225.678C183.227 225.718 170.601 230.142 167.633 238.411Z" fill="#333333"/>
<path d="M181.237 235.774L180.667 235.17C188.348 227.94 194.658 227.016 194.929 227.016L195.038 227.838C194.97 227.811 188.708 228.728 181.237 235.774Z" fill="#333333"/>
<path d="M172.897 246.15C169.759 238.302 160.522 240.497 160.128 240.599L159.925 239.797C160.027 239.797 170.255 237.317 173.664 245.844L172.897 246.15Z" fill="#333333"/>
<path d="M186.256 245.348C186.202 245.267 180.605 236.8 174.201 237.031L174.167 236.202C180.959 235.931 186.711 244.533 186.949 244.9L186.256 245.348Z" fill="#333333"/>
<path d="M143.563 315.034C143.563 314.755 140.629 287.054 163.579 281.638L163.769 282.447C141.539 287.692 144.351 314.667 144.385 314.939L143.563 315.034Z" fill="#333333"/>
<path d="M117.952 227.39C117.952 227.39 103.886 230.25 87.2328 196.698C87.2328 196.698 63.9576 159.831 80.5226 128.344C80.5226 128.344 92.1161 99.3446 113.653 102.66C113.653 102.66 141.084 112.139 147.747 148.517C149.783 159.754 149.41 171.295 146.654 182.377C143.898 193.459 138.821 203.829 131.759 212.802C127.614 218.078 122.992 222.961 117.952 227.39Z" fill="#E95659"/>
<path d="M134.585 315.401C134.5 315.402 134.417 315.376 134.348 315.327C134.278 315.278 134.226 315.209 134.198 315.129C124.581 289.099 118.271 243.201 118.21 242.739C113.293 214.011 111.418 118.872 111.418 117.914C111.417 117.86 111.427 117.806 111.447 117.755C111.467 117.705 111.497 117.658 111.535 117.619C111.573 117.58 111.618 117.549 111.668 117.527C111.718 117.506 111.771 117.494 111.826 117.493C111.88 117.489 111.935 117.497 111.986 117.516C112.038 117.534 112.085 117.563 112.124 117.601C112.164 117.638 112.195 117.684 112.216 117.735C112.238 117.785 112.248 117.839 112.247 117.894C112.247 118.852 114.135 213.936 119.038 242.61C119.106 243.085 125.402 288.895 134.985 314.844C135.023 314.947 135.018 315.06 134.972 315.159C134.926 315.258 134.843 315.336 134.741 315.374C134.692 315.395 134.638 315.404 134.585 315.401Z" fill="#333333"/>
<path d="M111.995 137.87C111.912 137.871 111.829 137.847 111.76 137.799C111.691 137.752 111.638 137.684 111.608 137.605C103.574 115.91 93.3182 118.281 93.2164 118.308C93.1101 118.335 92.9976 118.319 92.9034 118.263C92.8092 118.207 92.741 118.116 92.7138 118.01C92.6985 117.957 92.694 117.903 92.7005 117.849C92.7071 117.795 92.7245 117.742 92.7518 117.695C92.7792 117.648 92.8158 117.607 92.8594 117.575C92.9031 117.542 92.9529 117.519 93.0058 117.507C93.4473 117.384 103.676 114.945 111.914 136.083C113.048 131.932 117.198 119.219 125.891 117.5C125.947 117.482 126.006 117.477 126.064 117.484C126.122 117.49 126.178 117.509 126.228 117.539C126.278 117.569 126.321 117.609 126.355 117.657C126.388 117.705 126.412 117.759 126.423 117.817C126.434 117.874 126.433 117.933 126.419 117.99C126.406 118.047 126.381 118.1 126.345 118.147C126.31 118.193 126.265 118.231 126.214 118.259C126.162 118.287 126.106 118.304 126.048 118.308C116.39 120.225 112.464 137.374 112.396 137.551C112.376 137.637 112.329 137.715 112.262 137.772C112.195 137.829 112.111 137.864 112.023 137.87H111.995Z" fill="#333333"/>
<path d="M113.748 179.379C113.667 179.379 113.588 179.355 113.52 179.31C113.452 179.265 113.399 179.202 113.367 179.127L109.292 169.581C106.067 161.876 101.28 154.924 95.2335 149.163C91.8383 145.95 88.2231 142.978 84.4143 140.269C84.3692 140.238 84.3305 140.199 84.3006 140.153C84.2707 140.107 84.2501 140.056 84.24 140.003C84.2299 139.949 84.2305 139.894 84.2417 139.84C84.253 139.787 84.2747 139.736 84.3056 139.691C84.3357 139.646 84.3744 139.608 84.4194 139.578C84.4645 139.548 84.515 139.527 84.5681 139.517C84.6212 139.507 84.6758 139.508 84.7287 139.519C84.7816 139.53 84.8317 139.552 84.8761 139.583C88.7246 142.312 92.3742 145.311 95.7972 148.558C101.929 154.398 106.785 161.445 110.06 169.255L113.558 177.503C120.349 139.107 142.348 136.226 142.572 136.199C142.628 136.189 142.685 136.19 142.741 136.203C142.796 136.217 142.848 136.241 142.893 136.275C142.939 136.309 142.977 136.352 143.005 136.402C143.033 136.451 143.051 136.506 143.057 136.562C143.063 136.619 143.057 136.676 143.04 136.731C143.023 136.785 142.995 136.835 142.958 136.878C142.921 136.921 142.875 136.956 142.824 136.981C142.773 137.005 142.717 137.019 142.66 137.021C142.443 137.021 120.533 139.977 114.135 179.032C114.12 179.121 114.077 179.202 114.012 179.265C113.947 179.327 113.864 179.367 113.775 179.379H113.748Z" fill="#333333"/>
<path d="M114.991 203.874C114.893 203.873 114.798 203.838 114.723 203.775C114.649 203.711 114.599 203.624 114.583 203.527C110.216 178.91 78.2202 166.965 77.9078 166.836C77.8037 166.798 77.7189 166.72 77.6718 166.619C77.6248 166.519 77.6193 166.404 77.6565 166.299C77.6947 166.197 77.7718 166.113 77.8711 166.068C77.9703 166.022 78.0836 166.017 78.1863 166.054C78.5055 166.17 109.292 177.667 115.004 201.448C116.587 194.973 123.344 173.821 145.696 162.718C145.794 162.671 145.907 162.665 146.01 162.701C146.113 162.736 146.198 162.811 146.246 162.909C146.271 162.957 146.285 163.01 146.289 163.065C146.294 163.119 146.287 163.173 146.27 163.225C146.253 163.277 146.226 163.325 146.19 163.366C146.155 163.407 146.111 163.441 146.063 163.466C119.976 176.43 115.446 203.242 115.405 203.513C115.388 203.61 115.338 203.698 115.264 203.762C115.19 203.827 115.096 203.864 114.997 203.867L114.991 203.874Z" fill="#333333"/>
<path d="M63.2784 285.144C63.2784 285.144 88.8085 269.143 103.71 284.913C103.71 284.913 112.023 291.932 119.045 309.979C119.045 309.979 88.89 304.937 76.0129 293.672C72.2266 290.197 67.9323 287.322 63.2784 285.144Z" fill="#E95659"/>
<path opacity="0.2" d="M63.2784 285.144C63.2784 285.144 88.8085 269.143 103.71 284.913C103.71 284.913 112.023 291.932 119.045 309.979C119.045 309.979 88.89 304.937 76.0129 293.672C72.2266 290.197 67.9323 287.322 63.2784 285.144Z" fill="black"/>
<path d="M63.2785 285.144C63.2785 285.144 33.3202 268.389 23.3839 299.848C23.3839 299.848 21.0815 310.196 24.1446 315.564C24.7107 316.532 25.579 317.287 26.6159 317.713C27.6528 318.139 28.8009 318.212 29.8836 317.922C33.2795 317.079 39.229 313.927 47.4266 303.164C47.3994 303.164 58.4564 287.842 63.2785 285.144Z" fill="#E95659"/>
<path d="M27.0582 310.393C27.0109 310.4 26.9629 310.4 26.9156 310.393C26.8131 310.355 26.7295 310.278 26.6826 310.179C26.6357 310.08 26.6291 309.967 26.6643 309.863C26.7662 309.592 36.947 282.488 63.3396 284.764C63.3974 284.763 63.4548 284.774 63.508 284.797C63.5613 284.819 63.6092 284.853 63.6487 284.895C63.6882 284.937 63.7184 284.987 63.7374 285.042C63.7564 285.097 63.7638 285.155 63.759 285.212C63.7542 285.27 63.7375 285.326 63.7098 285.377C63.682 285.428 63.644 285.472 63.5981 285.507C63.5522 285.543 63.4994 285.568 63.4432 285.581C63.387 285.595 63.3286 285.596 63.2717 285.586C37.5107 283.337 27.5404 309.836 27.4454 310.122C27.4163 310.201 27.3636 310.27 27.2944 310.318C27.2252 310.367 27.1428 310.393 27.0582 310.393Z" fill="#333333"/>
<path d="M188.844 330.295C188.844 330.295 166.655 179.712 261.896 154.028C261.896 154.028 285.633 142.796 342.221 168.113C349.814 171.511 356.307 180.819 360.654 187.913C365.442 195.734 371.297 207.651 375.535 224.04C375.535 224.04 390.476 263.259 396.175 317.596L188.844 330.295Z" fill="#B3B3B3"/>
<path opacity="0.2" d="M209.715 301.506C201.463 282.861 217.084 224.047 217.084 224.047C220.31 197.12 267.207 193.471 267.207 193.471C278.318 193.981 285.497 183.36 285.497 183.36C275.146 162.977 286.509 151.541 286.509 151.541L328.719 145.684L345.155 163.507L255.681 299.033L209.715 301.506Z" fill="black"/>
<path d="M527.717 244.234V374.48C523.243 377.86 518.333 381.216 512.985 384.55V235.564C517.441 237.976 522.48 240.884 527.717 244.234Z" fill="white"/>
<path d="M512.999 235.564V384.577C510.812 385.936 508.548 387.295 506.207 388.654V231.997C508.231 233.057 510.527 234.212 512.999 235.564Z" fill="#E6E6E6"/>
<path d="M507.145 357.018L503.416 363.514C503.262 363.777 503.216 364.089 503.287 364.385C503.358 364.681 503.54 364.939 503.796 365.104L504.38 365.491C504.619 365.646 504.905 365.711 505.187 365.675C505.47 365.639 505.73 365.504 505.922 365.294L511.152 359.519L507.002 355.442L507.145 357.018Z" fill="#333333"/>
<path d="M542.869 357.847L546.598 364.329C546.751 364.592 546.797 364.904 546.726 365.201C546.656 365.497 546.473 365.754 546.217 365.919L545.633 366.306C545.396 366.461 545.111 366.526 544.83 366.49C544.548 366.454 544.289 366.319 544.098 366.109L538.869 360.334L543.012 356.257L542.869 357.847Z" fill="#333333"/>
<path d="M345.142 354.919L341.27 344.088L351.791 341.058L376.54 338.537L426.201 346.099L442.847 364.057L345.142 354.919Z" fill="white"/>
<path d="M448.335 346.099H426.201L376.54 338.537L358.372 325.946L402.274 323.955L448.335 346.099Z" fill="#E6E6E6"/>
<path d="M154.647 374.005L570.382 370.689L486.735 319.321L80.251 314.178L154.647 374.005Z" fill="#999999"/>
<path d="M351.811 341.092L388.88 337.314C388.996 337.304 389.104 337.255 389.187 337.174C389.271 337.094 389.324 336.987 389.337 336.872C389.351 336.757 389.324 336.64 389.262 336.543C389.2 336.445 389.106 336.372 388.996 336.335L338.506 319.009L302.51 324.737L351.811 341.092Z" fill="#CCCCCC"/>
<path d="M154.647 374.005L152.162 394.715L77.7856 333.278L80.251 314.178L154.647 374.005Z" fill="#666666"/>
<path d="M280.111 196.284C280.111 196.284 252.462 205.307 249.31 209.493L240.339 262.797C239.264 269.139 240.001 275.656 242.464 281.598L259.797 323.188L327.293 312.275C333.476 304.236 337.726 294.88 339.715 284.934C339.715 284.934 339.715 247.651 356.273 225.283C356.273 225.283 353.72 217.449 325.595 210.179L280.111 196.284Z" fill="#E95659"/>
<path d="M249.616 209.554C248.161 208.533 246.396 208.053 244.624 208.195C239.143 208.684 226.456 213.563 220.072 239.756C220.072 239.756 210.958 277.867 220.901 285.321L258.995 294.439C258.995 294.439 249.881 291.953 252.367 274.552C252.367 274.579 267.343 221.73 249.616 209.554Z" fill="#E95659"/>
<path opacity="0.2" d="M249.256 209.275C247.956 208.449 246.425 208.063 244.889 208.175C239.551 208.562 226.551 213.162 220.092 239.756C220.092 239.756 210.978 277.867 220.921 285.321L259.016 294.439C259.016 294.439 249.901 291.953 252.387 274.551C252.367 274.579 267.594 220.982 249.256 209.275Z" fill="black"/>
<path d="M325.086 322.746L320.331 307.193L311.726 306.221L302.897 300.276C297.932 297.789 294.183 299.155 294.183 299.155L284.77 301.193C278.236 302.077 277.224 315.571 277.224 315.571L278.882 316.046C278.882 316.046 293.925 308.171 297.172 310.869L304.541 315.951C304.541 315.951 306.809 316.76 307.332 320.11C307.332 320.11 312.324 326.904 317.819 324.689C318.588 324.372 319.38 324.116 320.189 323.921L325.086 322.746Z" fill="#F9B499"/>
<path d="M309.023 322.359C308.944 322.357 308.866 322.333 308.799 322.291C308.752 322.262 308.712 322.225 308.68 322.18C308.649 322.136 308.626 322.085 308.615 322.032C308.603 321.978 308.603 321.923 308.614 321.869C308.624 321.816 308.646 321.765 308.677 321.72L312.507 315.781C312.575 315.712 312.664 315.669 312.76 315.659C312.855 315.648 312.952 315.672 313.032 315.725C313.113 315.778 313.172 315.857 313.2 315.95C313.228 316.042 313.224 316.141 313.187 316.23L309.349 322.168C309.314 322.224 309.266 322.27 309.209 322.303C309.153 322.336 309.089 322.355 309.023 322.359Z" fill="#F7A48B"/>
<g opacity="0.2">
<path d="M276.237 202.128L255.528 209.571L255.808 210.351L276.517 202.908L276.237 202.128Z" fill="black"/>
</g>
<g opacity="0.2">
<path d="M351.553 223.503C345.929 219.426 323.884 214.093 323.666 214.038L323.856 213.237C324.766 213.454 346.269 218.672 352.035 222.831L351.553 223.503Z" fill="black"/>
</g>
<path d="M293.233 343.891L302.001 346.738L351.791 341.058L306.993 326.137L297.124 316.006L286.509 323.29L279.697 335.894L293.233 343.891Z" fill="#E6E6E6"/>
<path d="M302.001 346.738L275.968 337.049V343.83L302.001 351.134V346.738Z" fill="#333333"/>
<path d="M152.162 394.715L570.382 386.222V370.689L154.647 374.005L152.162 394.715Z" fill="#808080"/>
<path d="M498.132 337.572L504.034 337.864" stroke="#FF0000" stroke-width="0.25" stroke-miterlimit="10"/>
<path d="M165.827 278.309C165.827 278.309 173.705 272.194 187.56 269.476L186.745 283.745C186.745 283.745 175.763 278.309 165.827 278.309Z" fill="#E95659"/>
<path d="M318.409 212.102C318.301 225.487 314.756 230.95 311.434 233.165C309.754 234.308 307.699 234.758 305.695 234.422C281.992 231.521 279.703 196.726 279.703 196.726L292.519 183.408C290.231 196.168 294.19 207.869 303.244 212.075C307.903 214.222 313.214 214.099 318.409 212.102Z" fill="#F9B499"/>
<path d="M318.409 212.102C318.301 225.487 314.755 230.95 311.434 233.165L296.757 217.15C285.843 204.655 292.295 184.115 292.519 183.408C290.231 196.168 294.19 207.869 303.244 212.075C307.903 214.222 313.214 214.099 318.409 212.102Z" fill="#F7A48B"/>
<path d="M338.397 191.935C333.752 201.883 326.213 209.099 318.409 212.102C313.214 214.099 307.903 214.222 303.244 212.034C294.19 207.801 290.231 196.128 292.519 183.367C293.224 179.49 294.429 175.722 296.105 172.156C303.841 155.598 319.584 146.595 331.259 152.058C342.934 157.52 346.133 175.37 338.397 191.935Z" fill="#F9B499"/>
<path d="M300.405 166.041C300.405 166.408 300.405 166.761 300.35 167.121C299.956 172.109 296.791 175.954 292.947 175.954C288.831 175.954 285.476 171.504 285.476 166.007C285.476 162.222 287.059 158.934 289.388 157.262C290.41 156.495 291.65 156.076 292.927 156.066C297.063 156.1 300.405 160.551 300.405 166.041Z" fill="#F9B499"/>
<path d="M362.515 161.903C362.515 161.903 371.623 171.015 358.372 180.126C358.372 180.126 355.485 195.971 339.532 189.292C339.532 189.292 337.379 188.117 340.014 182.049C340.014 182.049 316.284 185.446 327.375 158.771C327.042 159.233 315.903 174.595 300.405 173.236C300.405 173.236 312.181 169.357 314.572 166.041C314.572 166.041 306.198 168.283 300.405 167.162L300.35 167.121C300.35 166.761 300.405 166.408 300.405 166.041C300.405 160.551 297.063 156.1 292.934 156.1C291.657 156.11 290.417 156.529 289.395 157.296C289.395 157.296 284.641 134.561 318.6 126.272C318.6 126.272 311.72 118.118 317.241 110.202C317.241 110.202 320.264 103.904 331.857 107.22C331.857 107.22 347.593 98.9301 347.593 116.331C347.593 116.331 356.701 114.673 355.064 124.614C355.064 124.614 361.693 127.93 353.414 134.561C353.414 134.561 361.741 136.348 357.577 144.984C357.57 144.984 371.623 151.127 362.515 161.903Z" fill="#333333"/>
<path d="M339.477 141.24C338.775 141.241 338.073 141.189 337.379 141.084C331.864 140.269 327.096 136.185 323.225 128.956C323.225 128.956 323.021 128.63 322.661 128.12C321.792 127.835 321.031 127.576 320.413 127.359C319.148 126.924 317.849 126.599 316.528 126.387C307.156 124.845 304.371 121.93 303.719 119.688C303.584 119.207 303.564 118.702 303.659 118.213C303.755 117.723 303.964 117.262 304.269 116.868C304.592 116.434 305.011 116.079 305.493 115.832C305.974 115.585 306.506 115.451 307.047 115.441H307.196C314.246 115.441 321.011 124.22 323.225 127.4C329.5 129.438 341.562 132.992 353.475 134.126L354.351 134.208L353.733 134.833C353.414 135.132 347.213 141.24 339.477 141.24ZM323.965 128.534C327.728 135.547 332.278 139.481 337.549 140.262C344.34 141.268 350.5 136.593 352.49 134.874C341.352 133.712 330.295 130.58 323.965 128.534ZM307.19 116.304H307.054C306.639 116.312 306.232 116.415 305.864 116.605C305.496 116.794 305.175 117.066 304.928 117.398C304.708 117.69 304.559 118.029 304.491 118.389C304.424 118.748 304.441 119.118 304.541 119.47C305.166 121.631 308.134 124.498 318.701 125.878H318.797C318.837 125.878 319.951 126.319 321.866 126.965C319.211 123.404 313.159 116.29 307.162 116.29L307.19 116.304Z" fill="#E95659"/>
<path d="M320.787 127.053L316.134 145.331L312.827 144.502L316.807 132.842L305.689 153.389L302.062 150.304L317.377 125.857L320.787 127.053Z" fill="#E95659"/>
<path d="M319.449 304.4L326.077 325.939L380.146 321.937C380.146 321.937 387.359 316.828 382.387 301.914L356.3 225.283C356.3 225.283 338.499 244.75 338.499 283.717L355.058 297.456L319.449 304.4Z" fill="#E95659"/>
<path opacity="0.2" d="M338.499 283.69C337.997 269.422 341.956 254.174 351.791 243.459C351.037 244.519 350.174 245.681 349.407 246.734C342.235 257.606 339.077 270.76 338.499 283.69Z" fill="black"/>
<path d="M282.366 314.592C282.316 314.599 282.266 314.599 282.216 314.592C282.115 314.551 282.032 314.473 281.987 314.373C281.941 314.273 281.936 314.159 281.972 314.056C283.187 311.094 284.823 308.323 286.828 305.827C286.862 305.784 286.904 305.748 286.951 305.722C286.999 305.695 287.052 305.678 287.106 305.672C287.16 305.665 287.215 305.67 287.268 305.685C287.32 305.7 287.369 305.725 287.412 305.759C287.496 305.83 287.55 305.93 287.561 306.039C287.573 306.148 287.541 306.258 287.473 306.344C285.527 308.773 283.937 311.468 282.753 314.348C282.719 314.422 282.664 314.484 282.595 314.527C282.527 314.571 282.447 314.593 282.366 314.592Z" fill="#F7A48B"/>
<path d="M294.883 310.516C294.854 310.522 294.824 310.522 294.795 310.516C294.741 310.504 294.69 310.483 294.645 310.451C294.601 310.42 294.562 310.38 294.533 310.334C294.504 310.288 294.485 310.236 294.476 310.182C294.467 310.128 294.469 310.073 294.482 310.02C295.327 307.01 296.902 304.256 299.067 302.002C299.103 301.958 299.148 301.922 299.198 301.896C299.249 301.87 299.305 301.854 299.362 301.851C299.419 301.848 299.476 301.856 299.529 301.875C299.583 301.895 299.632 301.926 299.673 301.965C299.714 302.004 299.747 302.052 299.769 302.104C299.791 302.157 299.802 302.214 299.801 302.271C299.8 302.328 299.788 302.384 299.764 302.436C299.741 302.488 299.707 302.534 299.664 302.573C297.613 304.729 296.113 307.349 295.29 310.21C295.265 310.298 295.212 310.376 295.138 310.431C295.065 310.487 294.975 310.516 294.883 310.516Z" fill="#F7A48B"/>
<path d="M302.001 314.592C301.932 314.593 301.864 314.576 301.804 314.545C301.708 314.493 301.636 314.405 301.604 314.301C301.573 314.197 301.583 314.084 301.634 313.988L305.322 306.982C305.379 306.898 305.466 306.839 305.565 306.814C305.664 306.79 305.768 306.803 305.858 306.851C305.948 306.899 306.017 306.978 306.052 307.074C306.087 307.17 306.086 307.275 306.048 307.37L302.367 314.375C302.332 314.442 302.279 314.497 302.215 314.535C302.15 314.574 302.076 314.594 302.001 314.592Z" fill="#F7A48B"/>
<path d="M270.236 313.519L278.868 316.006C278.868 316.006 288.831 310.4 294.183 309.992C295.241 309.922 296.292 310.217 297.158 310.828L305.193 316.393C305.804 316.812 306.313 317.363 306.683 318.005C307.054 318.647 307.275 319.364 307.332 320.103C307.489 321.787 307.386 323.485 307.027 325.138C307.027 325.138 307.027 331.749 304.541 331.749C304.541 331.749 303.502 337.375 299.053 337.049C298.235 338.439 296.953 339.495 295.433 340.032C295.433 340.032 295.433 345.467 288.818 344.401C288.818 344.401 269.76 338.374 265.617 332.578L266.446 315.177L270.236 313.519Z" fill="#F7A48B"/>
<path d="M304.541 332.163C304.484 332.163 304.429 332.15 304.377 332.127C304.326 332.103 304.28 332.07 304.242 332.027L293.885 320.81C293.81 320.728 293.77 320.621 293.775 320.511C293.779 320.401 293.827 320.297 293.908 320.222C293.989 320.147 294.097 320.107 294.207 320.112C294.317 320.116 294.421 320.164 294.496 320.246L304.846 331.464C304.922 331.543 304.965 331.649 304.965 331.759C304.965 331.869 304.922 331.975 304.846 332.055C304.761 332.127 304.653 332.166 304.541 332.163Z" fill="#EF947F"/>
<path d="M277.211 331.334C277.161 331.341 277.111 331.341 277.061 331.334C276.96 331.294 276.879 331.214 276.835 331.114C276.792 331.013 276.79 330.899 276.831 330.798C276.831 330.696 280.858 320.687 288.376 313.254C288.414 313.215 288.46 313.184 288.51 313.163C288.56 313.141 288.614 313.13 288.669 313.13C288.723 313.13 288.777 313.141 288.827 313.163C288.877 313.184 288.923 313.215 288.961 313.254C289.037 313.333 289.079 313.439 289.079 313.549C289.079 313.659 289.037 313.765 288.961 313.845C281.544 321.149 277.618 331.001 277.578 331.097C277.545 331.166 277.493 331.226 277.428 331.268C277.363 331.31 277.288 331.333 277.211 331.334Z" fill="#EF947F"/>
<path d="M299.053 337.463C298.972 337.469 298.891 337.45 298.82 337.41C298.75 337.37 298.692 337.31 298.655 337.238C298.618 337.166 298.604 337.084 298.613 337.003C298.622 336.922 298.655 336.846 298.707 336.784C298.968 336.417 299.139 335.994 299.207 335.549C299.274 335.104 299.235 334.649 299.094 334.222C297.803 330.071 288.628 326.334 288.539 326.3C288.437 326.257 288.356 326.177 288.313 326.075C288.27 325.973 288.268 325.859 288.309 325.756C288.329 325.706 288.359 325.66 288.397 325.621C288.435 325.583 288.48 325.552 288.53 325.531C288.58 325.51 288.633 325.5 288.687 325.5C288.742 325.5 288.795 325.511 288.845 325.532C289.239 325.688 298.476 329.452 299.882 333.978C300.059 334.521 300.107 335.099 300.023 335.665C299.94 336.231 299.726 336.77 299.399 337.239C299.366 337.303 299.317 337.358 299.256 337.397C299.195 337.437 299.125 337.459 299.053 337.463Z" fill="#EF947F"/>
<path d="M295.44 340.446C295.35 340.446 295.262 340.418 295.189 340.365L286.257 333.617C286.167 333.551 286.107 333.451 286.091 333.34C286.074 333.229 286.102 333.116 286.169 333.026C286.236 332.936 286.335 332.876 286.446 332.86C286.557 332.843 286.67 332.871 286.76 332.938L295.684 339.733C295.771 339.799 295.829 339.896 295.844 340.005C295.859 340.113 295.831 340.223 295.766 340.31C295.725 340.355 295.674 340.39 295.618 340.414C295.561 340.437 295.501 340.448 295.44 340.446Z" fill="#EF947F"/>
<path opacity="0.2" d="M333.854 301.88L319.449 304.407" stroke="black" stroke-linecap="round" stroke-linejoin="round"/>
<path d="M233.323 343.347L235.19 327.258L140.1 314.178L138.082 328.195L233.323 343.347Z" fill="#525659"/>
<path d="M267.207 331.497L233.323 343.347L235.19 327.258L268.884 316.006L267.207 331.497Z" fill="#E6E6E6"/>
<g opacity="0.2">
<path d="M237.106 330.431C237.022 330.429 236.941 330.403 236.873 330.356C236.804 330.309 236.75 330.243 236.719 330.166C236.699 330.114 236.69 330.06 236.692 330.005C236.693 329.95 236.706 329.896 236.729 329.846C236.752 329.796 236.784 329.751 236.824 329.714C236.864 329.677 236.912 329.648 236.963 329.629L266.12 318.588C266.223 318.55 266.336 318.553 266.437 318.598C266.537 318.642 266.616 318.724 266.657 318.825C266.676 318.877 266.685 318.931 266.684 318.986C266.682 319.041 266.669 319.095 266.646 319.145C266.624 319.195 266.591 319.24 266.551 319.277C266.511 319.314 266.464 319.343 266.412 319.362L237.255 330.404C237.208 330.423 237.157 330.432 237.106 330.431Z" fill="black"/>
</g>
<g opacity="0.2">
<path d="M237.106 332.938C237.022 332.936 236.941 332.91 236.873 332.863C236.804 332.816 236.75 332.75 236.719 332.673C236.699 332.622 236.69 332.567 236.692 332.512C236.693 332.457 236.706 332.403 236.729 332.353C236.752 332.304 236.784 332.259 236.824 332.221C236.864 332.184 236.912 332.155 236.963 332.136L266.12 321.095C266.223 321.057 266.336 321.06 266.437 321.105C266.537 321.149 266.616 321.231 266.657 321.333C266.676 321.384 266.685 321.439 266.684 321.493C266.682 321.548 266.669 321.602 266.646 321.652C266.624 321.702 266.591 321.747 266.551 321.784C266.511 321.822 266.464 321.851 266.412 321.869L237.255 332.911C237.208 332.93 237.157 332.939 237.106 332.938Z" fill="black"/>
</g>
<g opacity="0.2">
<path d="M237.106 336.233C237.021 336.232 236.939 336.205 236.87 336.157C236.801 336.109 236.749 336.04 236.719 335.962C236.699 335.911 236.69 335.857 236.692 335.802C236.694 335.748 236.706 335.694 236.729 335.645C236.752 335.596 236.784 335.551 236.825 335.515C236.865 335.478 236.912 335.45 236.963 335.432L266.12 324.383C266.171 324.364 266.226 324.355 266.281 324.357C266.336 324.358 266.389 324.371 266.439 324.394C266.489 324.416 266.534 324.449 266.571 324.489C266.609 324.529 266.638 324.577 266.657 324.628C266.676 324.679 266.685 324.733 266.683 324.787C266.681 324.842 266.669 324.895 266.646 324.945C266.623 324.994 266.591 325.038 266.551 325.075C266.51 325.112 266.463 325.14 266.412 325.158L237.255 336.206C237.207 336.222 237.157 336.232 237.106 336.233Z" fill="black"/>
</g>
<g opacity="0.2">
<path d="M237.106 339.542C237.022 339.541 236.941 339.515 236.873 339.468C236.804 339.421 236.75 339.354 236.719 339.277C236.699 339.226 236.69 339.171 236.692 339.117C236.693 339.062 236.706 339.008 236.729 338.958C236.752 338.908 236.784 338.863 236.824 338.826C236.864 338.788 236.912 338.759 236.963 338.741L266.12 327.699C266.171 327.68 266.226 327.671 266.281 327.672C266.336 327.674 266.389 327.687 266.439 327.709C266.489 327.732 266.534 327.765 266.571 327.805C266.609 327.845 266.638 327.892 266.657 327.944C266.676 327.995 266.685 328.049 266.683 328.103C266.681 328.158 266.669 328.211 266.646 328.26C266.623 328.31 266.591 328.354 266.551 328.391C266.51 328.427 266.463 328.456 266.412 328.474L237.255 339.515C237.208 339.535 237.157 339.544 237.106 339.542Z" fill="black"/>
</g>
<path d="M140.1 314.178L235.19 327.258L268.884 316.006L221.756 305.121L181.149 298.605L140.1 314.178Z" fill="#5D6166"/>
<path d="M199.5 293.638L208.132 287.815C211.706 285.388 215.93 284.1 220.249 284.118C235.469 284.247 259.824 292.034 259.824 292.034L267.207 307.179C217.451 289.235 202.135 309.979 202.135 309.979C178.405 268.321 126.265 298.768 126.265 298.768L124.682 283.69L138.082 277.901C138.082 277.901 174.52 274.585 189.428 285.375L199.5 293.638Z" fill="#E6E6E6"/>
<g opacity="0.2">
<path d="M142.124 292.7C142.034 292.701 141.947 292.673 141.875 292.621C141.802 292.568 141.749 292.493 141.723 292.408L137.689 279.26C137.672 279.208 137.665 279.153 137.67 279.098C137.675 279.044 137.69 278.99 137.715 278.942C137.74 278.893 137.775 278.85 137.817 278.815C137.859 278.78 137.908 278.753 137.96 278.737C138.066 278.707 138.178 278.72 138.275 278.772C138.371 278.824 138.443 278.911 138.476 279.016L142.551 292.163C142.567 292.215 142.572 292.27 142.567 292.324C142.561 292.379 142.545 292.431 142.519 292.479C142.493 292.527 142.458 292.57 142.416 292.604C142.374 292.638 142.325 292.664 142.273 292.68L142.124 292.7Z" fill="black"/>
</g>
<g opacity="0.2">
<path d="M128.493 297.979C128.393 297.98 128.297 297.945 128.222 297.88C128.147 297.815 128.098 297.725 128.085 297.626L126.245 283.826C126.231 283.717 126.26 283.608 126.326 283.52C126.392 283.433 126.489 283.374 126.598 283.357C126.707 283.344 126.816 283.374 126.903 283.442C126.99 283.509 127.046 283.609 127.06 283.718L128.907 297.511C128.921 297.619 128.891 297.729 128.825 297.817C128.759 297.904 128.662 297.963 128.554 297.979H128.493Z" fill="black"/>
</g>
<g opacity="0.2">
<path d="M131.474 296.621C131.381 296.62 131.291 296.588 131.219 296.53C131.146 296.472 131.095 296.392 131.073 296.301L128.092 283.113C128.068 283.006 128.087 282.893 128.145 282.8C128.204 282.707 128.297 282.641 128.404 282.617C128.511 282.592 128.624 282.612 128.717 282.67C128.81 282.729 128.876 282.822 128.9 282.929L131.882 296.118C131.894 296.171 131.895 296.226 131.886 296.279C131.877 296.333 131.857 296.384 131.828 296.43C131.799 296.477 131.761 296.516 131.717 296.548C131.672 296.579 131.622 296.602 131.569 296.614L131.474 296.621Z" fill="black"/>
</g>
<g opacity="0.2">
<path d="M134.585 295.336C134.491 295.336 134.4 295.305 134.326 295.247C134.252 295.189 134.2 295.108 134.177 295.017L131.08 281.91C131.067 281.857 131.065 281.803 131.073 281.749C131.081 281.695 131.1 281.644 131.129 281.598C131.157 281.552 131.195 281.512 131.239 281.48C131.283 281.448 131.333 281.426 131.386 281.414C131.439 281.401 131.494 281.398 131.548 281.407C131.602 281.415 131.654 281.434 131.701 281.462C131.748 281.491 131.788 281.528 131.82 281.572C131.853 281.617 131.876 281.667 131.888 281.72L134.992 294.827C135.005 294.879 135.008 294.934 134.999 294.988C134.991 295.041 134.972 295.093 134.944 295.139C134.915 295.185 134.878 295.225 134.834 295.257C134.79 295.288 134.74 295.311 134.687 295.323C134.654 295.334 134.619 295.339 134.585 295.336Z" fill="black"/>
</g>
<g opacity="0.2">
<path d="M138.082 294.351C137.991 294.351 137.903 294.321 137.83 294.266C137.758 294.211 137.706 294.133 137.682 294.045L134.184 280.66C134.17 280.608 134.166 280.553 134.173 280.5C134.18 280.446 134.197 280.394 134.225 280.347C134.252 280.3 134.288 280.26 134.331 280.227C134.374 280.194 134.424 280.171 134.476 280.157C134.529 280.143 134.584 280.139 134.638 280.146C134.692 280.153 134.744 280.17 134.791 280.197C134.839 280.224 134.88 280.261 134.914 280.304C134.947 280.347 134.971 280.397 134.985 280.449L138.483 293.835C138.497 293.887 138.501 293.942 138.493 293.996C138.486 294.05 138.468 294.102 138.44 294.149C138.412 294.196 138.375 294.237 138.331 294.269C138.287 294.302 138.237 294.325 138.184 294.338C138.152 294.349 138.117 294.353 138.082 294.351Z" fill="black"/>
</g>
<path d="M126.265 298.768C126.265 298.768 176.714 294.208 188.07 307.179C188.07 307.179 193.109 310.964 196.668 320.524C196.668 320.524 197.639 320.905 204.818 321.931C205.365 322.007 205.923 321.908 206.411 321.648C206.899 321.388 207.292 320.98 207.535 320.483C209.226 316.977 214.496 309.422 228.446 310.122L272.239 316.835L267.2 307.179C219.101 289.235 202.128 309.979 202.128 309.979C202.128 309.979 189.489 278.764 146.022 290.757C139.225 292.873 132.617 295.553 126.265 298.768Z" fill="#333333"/>
<path d="M233.737 343.347L232.08 359.091L138.497 342.063V328.195L233.737 343.347Z" fill="#E95659"/>
<path d="M275.968 333.611L233.323 343.347L267.207 331.497L275.968 333.611Z" fill="#E95659"/>
<path d="M231.666 359.091L233.323 343.347L277.211 333.611L275.968 346.099L231.666 359.091Z" fill="#E6E6E6"/>
<g opacity="0.2">
<path d="M237.106 346.765C237.005 346.766 236.907 346.73 236.831 346.664C236.754 346.597 236.705 346.506 236.692 346.405C236.678 346.305 236.702 346.204 236.758 346.12C236.814 346.036 236.899 345.975 236.997 345.95L275.866 335.418C275.967 335.402 276.07 335.423 276.156 335.479C276.242 335.534 276.305 335.619 276.332 335.718C276.359 335.816 276.348 335.922 276.302 336.013C276.256 336.104 276.179 336.176 276.083 336.213L237.214 346.751L237.106 346.765Z" fill="black"/>
</g>
<g opacity="0.2">
<path d="M236.284 350.903C236.187 350.899 236.094 350.86 236.023 350.795C235.951 350.729 235.905 350.64 235.892 350.544C235.879 350.448 235.9 350.35 235.952 350.268C236.004 350.186 236.083 350.124 236.175 350.094L275.065 339.563C275.116 339.547 275.171 339.543 275.224 339.549C275.278 339.555 275.33 339.572 275.377 339.598C275.424 339.625 275.465 339.661 275.497 339.704C275.53 339.747 275.554 339.796 275.567 339.848C275.597 339.954 275.583 340.066 275.53 340.162C275.476 340.257 275.387 340.328 275.282 340.358L236.413 350.889C236.372 350.905 236.327 350.909 236.284 350.903Z" fill="black"/>
</g>
<g opacity="0.2">
<path d="M236.284 354.219C236.183 354.22 236.085 354.184 236.009 354.117C235.933 354.051 235.883 353.959 235.87 353.859C235.856 353.759 235.88 353.657 235.936 353.573C235.993 353.49 236.078 353.429 236.175 353.403L275.065 342.872C275.117 342.857 275.171 342.854 275.225 342.861C275.279 342.868 275.33 342.885 275.377 342.912C275.424 342.94 275.465 342.976 275.498 343.019C275.53 343.062 275.554 343.111 275.567 343.164C275.597 343.269 275.583 343.382 275.53 343.477C275.476 343.573 275.387 343.643 275.282 343.673L236.413 354.205C236.372 354.22 236.327 354.225 236.284 354.219Z" fill="black"/>
</g>
<path d="M302.001 346.738V351.134L351.75 345.005L351.791 341.058L302.001 346.738Z" fill="#333333"/>
<path opacity="0.2" d="M302.001 346.738V351.134L351.75 345.005L351.791 341.058L302.001 346.738Z" fill="black"/>
<path d="M450.556 320.619V331.368L517.733 335.024L517.38 319.321L450.556 320.619Z" fill="#E95659"/>
<path d="M446.162 335.024L517.733 338.537V335.024L450.556 331.368L446.162 335.024Z" fill="#CCCCCC"/>
<path d="M446.162 335.024L446.983 344.095L517.38 349.15L517.733 338.537L446.162 335.024Z" fill="#B3B3B3"/>
<path d="M429.916 306.914L477.628 314.348L519.465 308.552L497.215 302.749L429.916 306.88V306.914Z" fill="#333333"/>
<path d="M476.799 325.117L428.483 316.835L429.916 306.914L477.628 314.348L476.799 325.117Z" fill="white"/>
<path d="M474.687 317.99H474.619L430.364 311.46C430.255 311.442 430.158 311.382 430.092 311.293C430.026 311.205 429.997 311.094 430.011 310.984C430.019 310.93 430.038 310.878 430.067 310.832C430.095 310.785 430.132 310.744 430.177 310.712C430.221 310.68 430.271 310.657 430.324 310.644C430.377 310.631 430.432 310.629 430.486 310.638L474.741 317.154C474.842 317.172 474.932 317.226 474.995 317.306C475.058 317.387 475.089 317.488 475.082 317.589C475.075 317.691 475.031 317.787 474.958 317.858C474.886 317.93 474.789 317.972 474.687 317.976V317.99Z" fill="#E6E6E6"/>
<path d="M474.32 321.387H474.239L430.351 313.172C430.296 313.163 430.245 313.142 430.198 313.112C430.152 313.082 430.112 313.043 430.082 312.998C430.051 312.952 430.029 312.901 430.018 312.847C430.007 312.793 430.007 312.737 430.018 312.683C430.039 312.576 430.102 312.482 430.192 312.421C430.282 312.36 430.393 312.337 430.5 312.357L474.395 320.572C474.448 320.581 474.499 320.602 474.544 320.631C474.59 320.661 474.629 320.699 474.659 320.744C474.69 320.789 474.711 320.84 474.721 320.893C474.732 320.946 474.732 321.001 474.721 321.054C474.702 321.147 474.652 321.231 474.579 321.291C474.506 321.352 474.415 321.386 474.32 321.387Z" fill="#E6E6E6"/>
<path d="M427.111 287.835L446.983 302.749L513.828 298.768L495.021 286.177L427.111 287.835Z" fill="#5D6166"/>
<path d="M426.282 296.118C426.282 296.118 446.542 311.542 446.562 311.949C446.583 312.357 446.99 302.749 446.99 302.749L427.111 287.835L426.282 296.118Z" fill="#E6E6E6"/>
<g opacity="0.21">
<path d="M445.333 304.822C445.242 304.822 445.153 304.791 445.082 304.733L427.688 291.491C427.601 291.424 427.544 291.327 427.529 291.219C427.513 291.11 427.541 291.001 427.607 290.913C427.674 290.826 427.773 290.768 427.882 290.753C427.991 290.738 428.102 290.766 428.191 290.831L445.584 304.088C445.671 304.156 445.727 304.256 445.741 304.365C445.755 304.474 445.725 304.584 445.659 304.672C445.62 304.72 445.57 304.759 445.513 304.785C445.457 304.811 445.395 304.823 445.333 304.822Z" fill="black"/>
</g>
<g opacity="0.21">
<path d="M445.333 307.308C445.242 307.309 445.153 307.278 445.082 307.22L427.688 293.964C427.601 293.898 427.544 293.8 427.529 293.692C427.513 293.584 427.541 293.474 427.607 293.386C427.674 293.299 427.773 293.241 427.882 293.226C427.991 293.211 428.102 293.239 428.191 293.305L445.584 306.561C445.671 306.629 445.727 306.729 445.741 306.838C445.755 306.947 445.725 307.058 445.659 307.145C445.62 307.195 445.571 307.235 445.514 307.263C445.458 307.292 445.396 307.307 445.333 307.308Z" fill="black"/>
</g>
<g opacity="0.21">
<path d="M444.505 308.966C444.414 308.964 444.326 308.933 444.253 308.878L426.86 295.622C426.816 295.589 426.78 295.548 426.753 295.501C426.726 295.454 426.708 295.402 426.701 295.349C426.694 295.295 426.698 295.24 426.712 295.188C426.727 295.136 426.751 295.087 426.785 295.044C426.851 294.957 426.949 294.9 427.057 294.885C427.165 294.869 427.275 294.897 427.362 294.963L444.756 308.219C444.842 308.287 444.898 308.387 444.912 308.496C444.926 308.605 444.897 308.716 444.831 308.803C444.792 308.853 444.742 308.893 444.686 308.921C444.629 308.95 444.568 308.965 444.505 308.966Z" fill="black"/>
</g>
<path d="M446.562 311.949L446.984 302.749L513.828 298.768V308.219L446.562 311.949Z" fill="#525659"/>
<path d="M477.628 314.348L476.799 325.117L517.38 319.321L519.465 308.552L477.628 314.348Z" fill="#333333"/>
<path opacity="0.2" d="M477.628 314.348L476.799 325.117L517.38 319.321L519.465 308.552L477.628 314.348Z" fill="black"/>
<path d="M473.492 323.045H473.424L430.357 315.863C430.301 315.858 430.245 315.841 430.195 315.814C430.145 315.786 430.102 315.749 430.067 315.704C430.032 315.658 430.007 315.607 429.993 315.551C429.979 315.496 429.977 315.438 429.986 315.382C429.995 315.326 430.016 315.272 430.047 315.224C430.078 315.176 430.119 315.135 430.167 315.104C430.214 315.073 430.268 315.051 430.324 315.042C430.38 315.032 430.438 315.034 430.493 315.048L473.56 322.223C473.667 322.243 473.762 322.303 473.825 322.392C473.888 322.481 473.915 322.591 473.899 322.698C473.883 322.795 473.833 322.883 473.759 322.946C473.684 323.01 473.589 323.045 473.492 323.045Z" fill="#E6E6E6"/>
<path d="M527.941 364.472C542.918 364.472 555.06 351.954 555.06 336.512C555.06 321.07 542.918 308.552 527.941 308.552C512.963 308.552 500.822 321.07 500.822 336.512C500.822 351.954 512.963 364.472 527.941 364.472Z" fill="#E95659"/>
<path opacity="0.2" d="M527.941 364.472C542.918 364.472 555.06 351.954 555.06 336.512C555.06 321.07 542.918 308.552 527.941 308.552C512.963 308.552 500.822 321.07 500.822 336.512C500.822 351.954 512.963 364.472 527.941 364.472Z" fill="black"/>
<path d="M509.216 314.592C509.133 314.593 509.052 314.568 508.984 314.52C508.916 314.473 508.864 314.406 508.836 314.327C508.775 314.178 507.443 310.577 508.272 301.88C508.272 301.526 508.102 292.068 512.598 290.75L513.074 290.614C517.203 289.398 522.338 287.896 533.592 289.5C533.788 289.541 537.843 290.485 537.544 297.796L538.088 308.11C537.992 309.09 537.676 310.035 537.164 310.876C537.131 310.918 537.089 310.954 537.042 310.981C536.995 311.007 536.943 311.024 536.89 311.031C536.836 311.037 536.781 311.033 536.729 311.018C536.677 311.003 536.629 310.978 536.587 310.944C536.544 310.91 536.508 310.868 536.481 310.82C536.454 310.772 536.437 310.72 536.431 310.666C536.425 310.611 536.429 310.556 536.444 310.504C536.459 310.451 536.485 310.402 536.519 310.359C536.927 309.663 537.179 308.886 537.259 308.083L536.716 297.803C536.987 291.198 533.585 290.329 533.442 290.329C522.399 288.752 517.359 290.24 513.311 291.429L512.836 291.565C508.938 292.707 509.094 301.839 509.101 301.934C508.286 310.482 509.59 314.022 509.603 314.056C509.623 314.106 509.632 314.16 509.631 314.214C509.629 314.268 509.617 314.321 509.595 314.37C509.573 314.42 509.541 314.464 509.502 314.501C509.463 314.538 509.416 314.567 509.365 314.586C509.317 314.598 509.266 314.6 509.216 314.592Z" fill="#E95659"/>
<path d="M503.633 305.583L502.085 301.784C502.003 301.58 502.006 301.351 502.091 301.148C502.176 300.945 502.337 300.783 502.54 300.697L504.224 300.018C504.427 299.936 504.654 299.938 504.856 300.022C505.057 300.105 505.218 300.265 505.304 300.466L506.791 304.04L503.633 305.583Z" fill="#333333"/>
<path d="M510.343 316.42C510.186 316.42 510.031 316.375 509.898 316.291C509.764 316.207 509.658 316.087 509.59 315.944L507.138 310.713C507.079 310.612 507.041 310.501 507.028 310.385C507.015 310.269 507.026 310.152 507.061 310.041C507.096 309.93 507.154 309.828 507.232 309.741C507.309 309.654 507.404 309.584 507.51 309.536C507.616 309.488 507.731 309.463 507.847 309.462C507.963 309.462 508.079 309.486 508.185 309.533C508.292 309.579 508.387 309.648 508.465 309.735C508.543 309.821 508.602 309.923 508.639 310.033L511.091 315.258C511.184 315.457 511.194 315.684 511.121 315.89C511.047 316.096 510.894 316.265 510.697 316.359C510.585 316.405 510.464 316.426 510.343 316.42Z" fill="#333333"/>
<path d="M499.253 314.307L517.285 306.072C516.866 305.001 516.172 304.06 515.272 303.344C514.373 302.628 513.301 302.163 512.164 301.995C510.657 301.807 509.129 302.112 507.81 302.865L503.056 304.903C501.642 305.482 500.449 306.496 499.65 307.798C498.85 309.1 498.485 310.623 498.607 312.146C498.607 312.33 498.655 312.52 498.682 312.703L499.253 314.307Z" fill="#E95659"/>
<path opacity="0.2" d="M499.253 314.307L517.285 306.072C516.866 305.001 516.172 304.06 515.272 303.344C514.373 302.628 513.301 302.163 512.164 301.995C510.657 301.807 509.129 302.112 507.81 302.865L503.056 304.903C501.642 305.482 500.449 306.496 499.65 307.798C498.85 309.1 498.485 310.623 498.607 312.146C498.607 312.33 498.655 312.52 498.682 312.703L499.253 314.307Z" fill="black"/>
<path d="M523.384 362.4C538.132 362.4 550.089 350.715 550.089 336.301C550.089 321.888 538.132 310.203 523.384 310.203C508.635 310.203 496.679 321.888 496.679 336.301C496.679 350.715 508.635 362.4 523.384 362.4Z" fill="#E95659"/>
<path opacity="0.2" d="M523.384 362.4C538.132 362.4 550.089 350.715 550.089 336.301C550.089 321.888 538.132 310.203 523.384 310.203C508.635 310.203 496.679 321.888 496.679 336.301C496.679 350.715 508.635 362.4 523.384 362.4Z" fill="white"/>
<path opacity="0.2" d="M523.384 359.498C536.497 359.498 547.127 349.113 547.127 336.301C547.127 323.49 536.497 313.104 523.384 313.104C510.27 313.104 499.64 323.49 499.64 336.301C499.64 349.113 510.27 359.498 523.384 359.498Z" fill="white"/>
<path d="M524.008 337.137C525.152 337.137 526.08 336.209 526.08 335.065C526.08 333.92 525.152 332.992 524.008 332.992C522.864 332.992 521.937 333.92 521.937 335.065C521.937 336.209 522.864 337.137 524.008 337.137Z" fill="#333333"/>
<path d="M517.285 347.492C517.212 347.49 517.141 347.469 517.078 347.431C517.016 347.394 516.964 347.34 516.929 347.277C516.893 347.213 516.874 347.141 516.875 347.068C516.875 346.995 516.895 346.923 516.931 346.86L524.192 334.739C524.238 334.667 524.304 334.61 524.382 334.575L538.583 328.345C538.685 328.301 538.8 328.3 538.903 328.341C539.006 328.381 539.089 328.461 539.134 328.562C539.177 328.663 539.178 328.777 539.137 328.879C539.097 328.981 539.017 329.062 538.916 329.106L524.857 335.282L517.665 347.288C517.625 347.353 517.569 347.406 517.502 347.442C517.436 347.477 517.36 347.495 517.285 347.492Z" fill="#E95659"/>
<path d="M534.794 321.387C534.696 321.385 534.603 321.349 534.529 321.285C534.451 321.21 534.405 321.108 534.401 321C534.398 320.893 534.436 320.788 534.508 320.708L538.006 316.57C538.077 316.486 538.178 316.434 538.287 316.424C538.396 316.414 538.505 316.447 538.59 316.515C538.632 316.551 538.666 316.594 538.691 316.642C538.716 316.69 538.731 316.743 538.735 316.798C538.739 316.852 538.733 316.906 538.716 316.958C538.7 317.01 538.673 317.058 538.638 317.1L535.14 321.244C535.097 321.293 535.044 321.332 534.984 321.356C534.924 321.381 534.858 321.392 534.794 321.387Z" fill="#E95659"/>
<path d="M525.958 317.99C525.848 317.99 525.742 317.946 525.665 317.868C525.587 317.791 525.543 317.685 525.543 317.575V311.963C525.545 311.854 525.589 311.749 525.667 311.672C525.744 311.594 525.848 311.55 525.958 311.548C526.067 311.548 526.173 311.592 526.251 311.67C526.328 311.748 526.372 311.853 526.372 311.963V317.575C526.372 317.685 526.328 317.791 526.251 317.868C526.173 317.946 526.067 317.99 525.958 317.99Z" fill="#E95659"/>
<path d="M504.625 351.712C504.548 351.708 504.473 351.683 504.41 351.639C504.346 351.596 504.296 351.535 504.265 351.465C504.234 351.394 504.223 351.316 504.234 351.24C504.245 351.163 504.277 351.091 504.326 351.032L508.401 346.806C508.439 346.767 508.484 346.736 508.535 346.715C508.585 346.693 508.639 346.682 508.693 346.682C508.748 346.682 508.801 346.693 508.852 346.715C508.902 346.736 508.947 346.767 508.985 346.806C509.062 346.884 509.106 346.989 509.106 347.098C509.106 347.207 509.062 347.313 508.985 347.39L504.91 351.616C504.83 351.682 504.728 351.716 504.625 351.712Z" fill="#E95659"/>
<path d="M541.918 353.621C541.861 353.62 541.804 353.608 541.751 353.585C541.699 353.561 541.651 353.527 541.613 353.485L537.993 349.463C537.954 349.425 537.923 349.379 537.901 349.329C537.88 349.279 537.869 349.225 537.869 349.17C537.869 349.116 537.88 349.062 537.901 349.012C537.923 348.962 537.954 348.916 537.993 348.878C538.03 348.839 538.076 348.808 538.126 348.787C538.176 348.766 538.23 348.755 538.285 348.755C538.339 348.755 538.393 348.766 538.443 348.787C538.493 348.808 538.539 348.839 538.577 348.878L542.197 352.894C542.274 352.973 542.318 353.079 542.318 353.189C542.318 353.3 542.274 353.406 542.197 353.485C542.124 353.563 542.025 353.612 541.918 353.621Z" fill="#E95659"/>
<path d="M540.981 328.433C540.882 328.429 540.787 328.39 540.714 328.322C540.641 328.254 540.596 328.162 540.585 328.064C540.574 327.965 540.599 327.865 540.656 327.783C540.712 327.702 540.796 327.643 540.893 327.618L547.039 326.259C547.146 326.237 547.258 326.258 547.349 326.318C547.441 326.377 547.505 326.471 547.528 326.578C547.541 326.631 547.543 326.686 547.534 326.739C547.526 326.793 547.506 326.844 547.477 326.89C547.447 326.935 547.409 326.975 547.364 327.005C547.32 327.036 547.269 327.057 547.216 327.067L541.103 328.426L540.981 328.433Z" fill="#E95659"/>
<path d="M548.438 340.032H548.364L542.394 338.951C542.286 338.931 542.19 338.869 542.127 338.779C542.065 338.688 542.041 338.577 542.061 338.469C542.081 338.361 542.143 338.265 542.233 338.202C542.323 338.14 542.435 338.116 542.543 338.136L548.513 339.216C548.615 339.235 548.706 339.291 548.768 339.373C548.831 339.456 548.86 339.558 548.851 339.661C548.841 339.764 548.794 339.86 548.718 339.93C548.641 340 548.542 340.038 548.438 340.038V340.032Z" fill="#E95659"/>
<path d="M504.543 337.545H504.469L498.512 336.458C498.404 336.438 498.308 336.376 498.246 336.285C498.184 336.195 498.16 336.083 498.179 335.975C498.199 335.867 498.261 335.771 498.352 335.709C498.442 335.646 498.554 335.622 498.662 335.642L504.632 336.723C504.74 336.742 504.835 336.804 504.898 336.895C504.96 336.985 504.984 337.097 504.964 337.205C504.948 337.303 504.896 337.392 504.818 337.455C504.741 337.517 504.643 337.549 504.543 337.545Z" fill="#E95659"/>
<path d="M506.452 327.747C506.367 327.748 506.283 327.722 506.214 327.672L501.378 324.275C501.288 324.212 501.227 324.115 501.208 324.007C501.189 323.899 501.213 323.787 501.277 323.697C501.34 323.607 501.436 323.546 501.544 323.527C501.652 323.508 501.764 323.532 501.854 323.595L506.69 326.993C506.763 327.042 506.819 327.113 506.849 327.197C506.878 327.281 506.88 327.372 506.853 327.456C506.826 327.541 506.772 327.614 506.7 327.665C506.628 327.717 506.54 327.743 506.452 327.74V327.747Z" fill="#E95659"/>
<path d="M514.48 359.92C514.415 359.92 514.352 359.904 514.296 359.872C514.248 359.847 514.204 359.814 514.169 359.772C514.133 359.731 514.106 359.683 514.089 359.631C514.072 359.58 514.065 359.525 514.07 359.471C514.074 359.416 514.088 359.363 514.113 359.315L516.599 354.348C516.652 354.258 516.737 354.192 516.837 354.162C516.938 354.133 517.045 354.142 517.139 354.188C517.232 354.235 517.305 354.315 517.342 354.412C517.379 354.51 517.378 354.618 517.339 354.715L514.853 359.688C514.818 359.758 514.765 359.816 514.699 359.857C514.633 359.897 514.557 359.919 514.48 359.92Z" fill="#E95659"/>
<path d="M529.462 360.592C529.352 360.592 529.247 360.549 529.169 360.471C529.091 360.393 529.048 360.288 529.048 360.178V354.531C529.048 354.421 529.091 354.316 529.169 354.238C529.247 354.161 529.352 354.117 529.462 354.117C529.572 354.117 529.677 354.161 529.755 354.238C529.833 354.316 529.876 354.421 529.876 354.531V360.178C529.876 360.288 529.833 360.393 529.755 360.471C529.677 360.549 529.572 360.592 529.462 360.592Z" fill="#E95659"/>
<path d="M514.48 320.15C514.416 320.157 514.353 320.15 514.293 320.128C514.233 320.107 514.178 320.073 514.133 320.028L510.608 315.748C510.573 315.706 510.547 315.657 510.531 315.605C510.515 315.553 510.509 315.498 510.514 315.444C510.519 315.39 510.535 315.337 510.561 315.289C510.586 315.241 510.621 315.198 510.663 315.163C510.748 315.094 510.857 315.062 510.966 315.072C511.075 315.082 511.176 315.134 511.247 315.218L514.772 319.498C514.807 319.54 514.833 319.588 514.849 319.64C514.865 319.693 514.871 319.747 514.866 319.802C514.861 319.856 514.845 319.909 514.819 319.957C514.794 320.005 514.759 320.048 514.717 320.082C514.647 320.128 514.564 320.152 514.48 320.15Z" fill="#E95659"/>
<g opacity="0.2">
<path d="M534.794 321.387C534.696 321.385 534.603 321.349 534.529 321.285C534.451 321.21 534.405 321.108 534.401 321C534.398 320.893 534.436 320.788 534.508 320.708L538.006 316.57C538.077 316.486 538.178 316.434 538.287 316.424C538.396 316.414 538.505 316.447 538.59 316.515C538.632 316.551 538.666 316.594 538.691 316.642C538.716 316.69 538.731 316.743 538.735 316.798C538.739 316.852 538.733 316.906 538.716 316.958C538.7 317.01 538.673 317.058 538.638 317.1L535.14 321.244C535.097 321.293 535.044 321.332 534.984 321.356C534.923 321.381 534.858 321.392 534.794 321.387Z" fill="white"/>
<path d="M525.958 317.99C525.848 317.99 525.742 317.946 525.665 317.868C525.587 317.791 525.543 317.685 525.543 317.575V311.963C525.545 311.853 525.589 311.749 525.667 311.672C525.744 311.594 525.848 311.55 525.958 311.548C526.067 311.548 526.173 311.592 526.251 311.67C526.328 311.748 526.372 311.853 526.372 311.963V317.575C526.372 317.685 526.328 317.791 526.251 317.868C526.173 317.946 526.067 317.99 525.958 317.99Z" fill="white"/>
<path d="M504.625 351.712C504.548 351.708 504.473 351.683 504.41 351.639C504.346 351.596 504.296 351.535 504.265 351.465C504.234 351.394 504.223 351.316 504.234 351.24C504.245 351.163 504.277 351.091 504.326 351.032L508.401 346.806C508.439 346.767 508.484 346.736 508.535 346.715C508.585 346.693 508.639 346.682 508.693 346.682C508.748 346.682 508.801 346.693 508.852 346.715C508.902 346.736 508.947 346.767 508.985 346.806C509.062 346.884 509.106 346.989 509.106 347.098C509.106 347.207 509.062 347.313 508.985 347.39L504.91 351.616C504.83 351.682 504.728 351.716 504.625 351.712Z" fill="white"/>
<path d="M541.918 353.621C541.861 353.62 541.804 353.608 541.751 353.585C541.699 353.561 541.652 353.527 541.613 353.485L537.993 349.463C537.954 349.425 537.923 349.379 537.901 349.329C537.88 349.279 537.869 349.225 537.869 349.17C537.869 349.116 537.88 349.062 537.901 349.012C537.923 348.962 537.954 348.916 537.993 348.878C538.031 348.839 538.076 348.808 538.126 348.787C538.176 348.766 538.23 348.755 538.285 348.755C538.339 348.755 538.393 348.766 538.443 348.787C538.493 348.808 538.539 348.839 538.577 348.878L542.197 352.894C542.274 352.973 542.318 353.079 542.318 353.189C542.318 353.3 542.274 353.406 542.197 353.485C542.124 353.563 542.025 353.612 541.918 353.621Z" fill="white"/>
<path d="M540.981 328.433C540.882 328.429 540.787 328.39 540.714 328.322C540.641 328.254 540.596 328.162 540.585 328.064C540.574 327.965 540.599 327.865 540.656 327.783C540.712 327.702 540.796 327.643 540.893 327.618L547.039 326.259C547.146 326.237 547.258 326.258 547.349 326.318C547.441 326.377 547.505 326.471 547.528 326.578C547.541 326.631 547.543 326.686 547.534 326.739C547.526 326.793 547.506 326.844 547.477 326.89C547.447 326.935 547.409 326.975 547.364 327.005C547.32 327.036 547.269 327.057 547.216 327.067L541.103 328.426L540.981 328.433Z" fill="white"/>
<path d="M548.438 340.032H548.364L542.394 338.951C542.286 338.931 542.19 338.869 542.127 338.779C542.065 338.688 542.041 338.577 542.061 338.469C542.081 338.361 542.143 338.265 542.233 338.202C542.323 338.14 542.435 338.116 542.543 338.136L548.513 339.216C548.615 339.235 548.706 339.291 548.768 339.373C548.831 339.456 548.86 339.558 548.851 339.661C548.841 339.764 548.794 339.86 548.718 339.93C548.641 340 548.542 340.038 548.438 340.038V340.032Z" fill="white"/>
<path d="M504.543 337.545H504.469L498.512 336.458C498.404 336.438 498.308 336.376 498.246 336.285C498.184 336.195 498.16 336.083 498.179 335.975C498.199 335.867 498.261 335.771 498.352 335.709C498.442 335.646 498.554 335.622 498.662 335.642L504.632 336.723C504.74 336.742 504.835 336.804 504.898 336.895C504.96 336.985 504.984 337.097 504.964 337.205C504.948 337.303 504.896 337.392 504.818 337.455C504.741 337.517 504.643 337.549 504.543 337.545Z" fill="white"/>
<path d="M506.452 327.747C506.367 327.748 506.283 327.722 506.214 327.672L501.378 324.275C501.288 324.212 501.227 324.115 501.208 324.007C501.189 323.899 501.213 323.787 501.277 323.697C501.34 323.607 501.436 323.546 501.544 323.527C501.652 323.508 501.764 323.532 501.854 323.595L506.69 326.993C506.763 327.042 506.819 327.113 506.849 327.197C506.878 327.281 506.88 327.372 506.853 327.456C506.826 327.541 506.772 327.614 506.7 327.665C506.628 327.717 506.54 327.743 506.452 327.74V327.747Z" fill="white"/>
<path d="M514.48 359.92C514.415 359.92 514.352 359.904 514.296 359.872C514.248 359.847 514.204 359.814 514.169 359.772C514.133 359.731 514.106 359.683 514.089 359.631C514.072 359.58 514.065 359.525 514.069 359.471C514.074 359.416 514.088 359.363 514.113 359.315L516.599 354.348C516.652 354.258 516.737 354.192 516.837 354.162C516.937 354.133 517.045 354.142 517.139 354.188C517.232 354.235 517.305 354.315 517.342 354.412C517.379 354.51 517.378 354.618 517.339 354.715L514.853 359.688C514.818 359.758 514.765 359.816 514.699 359.857C514.633 359.897 514.557 359.919 514.48 359.92Z" fill="white"/>
<path d="M529.462 360.592C529.352 360.592 529.247 360.549 529.169 360.471C529.092 360.393 529.048 360.288 529.048 360.178V354.531C529.048 354.421 529.092 354.316 529.169 354.238C529.247 354.161 529.352 354.117 529.462 354.117C529.572 354.117 529.677 354.161 529.755 354.238C529.833 354.316 529.876 354.421 529.876 354.531V360.178C529.876 360.288 529.833 360.393 529.755 360.471C529.677 360.549 529.572 360.592 529.462 360.592Z" fill="white"/>
<path d="M514.48 320.15C514.416 320.157 514.353 320.15 514.293 320.128C514.233 320.107 514.178 320.073 514.133 320.028L510.608 315.748C510.573 315.706 510.547 315.657 510.531 315.605C510.515 315.553 510.509 315.498 510.514 315.444C510.519 315.39 510.535 315.337 510.561 315.289C510.586 315.241 510.621 315.198 510.663 315.163C510.748 315.094 510.857 315.062 510.966 315.072C511.075 315.082 511.176 315.134 511.247 315.218L514.772 319.498C514.807 319.54 514.833 319.588 514.849 319.64C514.865 319.693 514.871 319.747 514.866 319.802C514.861 319.856 514.845 319.909 514.819 319.957C514.794 320.005 514.759 320.048 514.717 320.082C514.647 320.128 514.564 320.152 514.48 320.15Z" fill="white"/>
</g>
<path d="M540.275 301.683L542.244 298.081C542.35 297.888 542.528 297.745 542.739 297.683C542.951 297.621 543.178 297.644 543.372 297.748L544.961 298.618C545.154 298.724 545.297 298.902 545.359 299.114C545.421 299.325 545.398 299.552 545.294 299.746L543.467 303.143L540.275 301.683Z" fill="#333333"/>
<path d="M536.845 312.275C536.723 312.277 536.602 312.252 536.492 312.201C536.293 312.108 536.139 311.94 536.064 311.733C535.988 311.527 535.998 311.299 536.091 311.1L537.979 307.023C538.078 306.837 538.243 306.696 538.442 306.628C538.642 306.56 538.859 306.57 539.051 306.656C539.243 306.743 539.395 306.899 539.476 307.093C539.556 307.288 539.56 307.505 539.487 307.703L537.592 311.779C537.529 311.926 537.424 312.05 537.292 312.138C537.159 312.226 537.004 312.274 536.845 312.275Z" fill="#333333"/>
<path d="M530.216 303.164L547.997 311.949C548.562 310.948 548.853 309.814 548.84 308.664C548.827 307.514 548.51 306.388 547.922 305.399C547.12 304.118 545.93 303.125 544.526 302.566L538.325 300.025C538.325 300.025 534.508 296.926 531.113 301.683L530.216 303.164Z" fill="#E95659"/>
<path opacity="0.2" d="M530.216 303.164L547.997 311.949C548.562 310.948 548.853 309.814 548.84 308.664C548.827 307.514 548.51 306.388 547.922 305.399C547.12 304.118 545.93 303.125 544.526 302.566L538.325 300.025C538.325 300.025 534.508 296.926 531.113 301.683L530.216 303.164Z" fill="black"/>
<path d="M118.448 289.078C118.448 289.078 105.367 262.579 114.481 245.994C114.481 245.994 123.059 231.854 138.931 232.656C140.158 232.723 141.316 233.242 142.182 234.113C143.049 234.983 143.563 236.144 143.625 237.371C143.754 240.198 142.877 244.553 139.06 250.899C139.067 250.899 121.572 279.138 118.448 289.078Z" fill="#E95659"/>
<path opacity="0.2" d="M118.448 289.078C118.448 289.078 105.367 262.579 114.481 245.994C114.481 245.994 123.059 231.854 138.931 232.656C140.158 232.723 141.316 233.242 142.182 234.113C143.049 234.983 143.563 236.144 143.625 237.371C143.754 240.198 142.877 244.553 139.06 250.899C139.067 250.899 121.572 279.138 118.448 289.078Z" fill="black"/>
<path d="M127.576 315.401C127.499 315.401 127.424 315.38 127.358 315.341C127.292 315.301 127.238 315.245 127.202 315.177L119.908 300.867C111.629 284.302 128.296 248.181 129.043 246.646C129.091 246.548 129.175 246.473 129.278 246.436C129.381 246.4 129.493 246.404 129.593 246.449C129.642 246.472 129.687 246.504 129.724 246.544C129.761 246.584 129.79 246.631 129.809 246.682C129.828 246.733 129.836 246.787 129.834 246.842C129.832 246.896 129.819 246.95 129.797 246.999C129.62 247.373 112.586 284.288 120.682 300.493L127.976 314.796C128.001 314.845 128.016 314.898 128.02 314.952C128.024 315.007 128.017 315.061 128 315.113C127.983 315.165 127.956 315.212 127.921 315.254C127.885 315.295 127.842 315.329 127.793 315.353C127.728 315.392 127.651 315.409 127.576 315.401Z" fill="#333333"/>
<path d="M121.979 267.105C121.886 267.103 121.796 267.072 121.721 267.016C121.678 266.982 121.642 266.94 121.616 266.893C121.589 266.845 121.572 266.793 121.566 266.738C121.559 266.684 121.564 266.629 121.579 266.576C121.594 266.524 121.619 266.475 121.653 266.432C121.973 266.017 129.64 256.274 134.422 254.249C134.521 254.212 134.632 254.215 134.729 254.257C134.827 254.299 134.905 254.377 134.947 254.474C134.989 254.572 134.991 254.682 134.954 254.782C134.917 254.882 134.843 254.963 134.748 255.01C130.157 256.953 122.38 266.846 122.305 266.941C122.267 266.992 122.218 267.033 122.162 267.062C122.105 267.09 122.043 267.105 121.979 267.105Z" fill="#333333"/>
<path d="M122.93 264.074C122.836 264.075 122.744 264.044 122.67 263.986C122.596 263.928 122.544 263.846 122.523 263.755C120.193 253.257 124.261 240.313 124.302 240.184C124.316 240.129 124.341 240.078 124.375 240.033C124.41 239.988 124.453 239.95 124.502 239.923C124.552 239.895 124.606 239.878 124.663 239.873C124.719 239.867 124.776 239.873 124.83 239.89C124.884 239.907 124.934 239.935 124.976 239.973C125.019 240.01 125.053 240.055 125.078 240.107C125.102 240.158 125.116 240.213 125.118 240.27C125.12 240.326 125.11 240.383 125.09 240.436C125.049 240.565 121.056 253.305 123.331 263.571C123.343 263.624 123.344 263.679 123.335 263.733C123.326 263.787 123.306 263.838 123.277 263.884C123.248 263.93 123.211 263.97 123.166 264.001C123.122 264.033 123.072 264.055 123.018 264.067L122.93 264.074Z" fill="#333333"/>
<path d="M120.275 273.41C120.16 273.409 120.05 273.363 119.969 273.281C113.266 266.221 115.711 255.941 115.731 255.839C115.76 255.733 115.828 255.643 115.921 255.586C116.015 255.529 116.127 255.51 116.234 255.533C116.287 255.546 116.337 255.569 116.381 255.601C116.425 255.634 116.463 255.674 116.491 255.721C116.519 255.768 116.538 255.82 116.547 255.874C116.555 255.928 116.552 255.983 116.539 256.036C116.539 256.138 114.182 265.983 120.573 272.71C120.651 272.788 120.694 272.893 120.694 273.002C120.694 273.112 120.651 273.217 120.573 273.295C120.493 273.37 120.385 273.412 120.275 273.41Z" fill="#333333"/>
<path d="M121.789 315.401C121.698 315.4 121.61 315.37 121.538 315.315C121.466 315.26 121.413 315.183 121.388 315.095C117.218 299.984 64.1206 285.722 63.5841 285.586C63.5314 285.572 63.482 285.547 63.4388 285.514C63.3956 285.481 63.3594 285.439 63.3323 285.392C63.3051 285.345 63.2876 285.292 63.2807 285.238C63.2738 285.184 63.2777 285.129 63.2921 285.076C63.3055 285.024 63.3292 284.975 63.3618 284.932C63.3944 284.888 63.4353 284.852 63.4821 284.825C63.5289 284.798 63.5806 284.78 63.6343 284.773C63.6879 284.766 63.7425 284.77 63.7946 284.784C66.0019 285.369 117.891 299.304 122.203 314.878C122.218 314.93 122.222 314.985 122.215 315.04C122.208 315.094 122.19 315.146 122.163 315.193C122.136 315.241 122.1 315.282 122.057 315.315C122.013 315.349 121.964 315.373 121.911 315.387L121.789 315.401Z" fill="#333333"/>
<path d="M465.511 143.258L380.452 143.938L374.102 143.992L414.295 91.0483V48.3507C415.225 48.7652 416.149 49.1933 417.08 49.6349C417.759 49.9611 418.438 50.3144 419.117 50.6202C420.672 51.3812 422.228 52.1693 423.769 52.9915V90.233L465.511 143.258Z" fill="#E95659"/>
<path opacity="0.2" d="M435.39 124.852C435.39 124.852 429.76 134.086 407.544 135.356L380.452 143.911L374.102 143.965L414.295 91.0483V48.3507C415.225 48.7652 416.149 49.1933 417.08 49.6349C417.759 49.9611 418.438 50.3144 419.117 50.6202V90.8581C419.117 90.8581 442.433 114.728 435.39 124.852Z" fill="black"/>
<path d="M466.449 145.331C466.41 146.118 466.075 146.861 465.511 147.41C461.205 152.166 442.501 155.686 420.075 155.686C394.456 155.686 373.694 151.045 373.694 145.331C373.694 141.186 384.615 137.598 400.392 135.954C406.936 135.286 413.51 134.959 420.088 134.976C426.201 134.976 431.987 135.241 437.312 135.71C454.366 137.252 466.449 140.969 466.449 145.331Z" fill="white"/>
<path d="M466.449 145.331C466.41 146.118 466.075 146.861 465.511 147.41C438.073 136.647 419.246 137.456 419.246 137.456C398.538 137.456 373.694 145.331 373.694 145.331C373.694 141.186 384.615 137.598 400.392 135.954C406.936 135.286 413.51 134.959 420.088 134.976C426.201 134.976 431.987 135.241 437.312 135.71C454.366 137.252 466.449 140.969 466.449 145.331Z" fill="#CCCCCC"/>
<path d="M437.298 135.71C436.613 140.095 434.391 144.094 431.029 146.991C427.668 149.888 423.386 151.495 418.949 151.525C414.513 151.554 410.21 150.004 406.81 147.152C403.411 144.299 401.136 140.33 400.392 135.954C406.936 135.286 413.51 134.959 420.088 134.976C426.16 134.976 431.953 135.214 437.298 135.71Z" fill="#333333"/>
<path d="M417.059 49.6349H289.219V43.8391H403.279C407.863 45.5242 412.475 47.4674 417.059 49.6349Z" fill="white"/>
<path d="M403.279 43.8391H289.219V36.365C308.724 30.3449 321.248 30.0935 324.488 30.1411C325.092 30.1411 325.683 30.1411 326.281 30.1411C332.441 30.0595 367.099 30.3245 403.279 43.8391Z" fill="#E6E6E6"/>
</svg>
